<mxfile host="app.diagrams.net" modified="2024-02-26T17:30:24.009Z" agent="Mozilla/5.0 (Windows NT 10.0; Win64; x64; rv:109.0) Gecko/20100101 Firefox/115.0" etag="OP5bw5LrHWkCXUwaaL9T" version="23.1.5" type="github">
  <diagram name="Page-1" id="Ed4Levsqqi0TFWz0dsx6">
    <mxGraphModel dx="1434" dy="754" grid="1" gridSize="10" guides="1" tooltips="1" connect="1" arrows="1" fold="1" page="1" pageScale="1" pageWidth="850" pageHeight="1100" math="0" shadow="0">
      <root>
        <mxCell id="0" />
        <mxCell id="1" parent="0" />
        <mxCell id="ZmPec7rk78VJ1QjIbLF4-3" value="" style="edgeStyle=orthogonalEdgeStyle;rounded=0;orthogonalLoop=1;jettySize=auto;html=1;" edge="1" parent="1" source="ZmPec7rk78VJ1QjIbLF4-1" target="ZmPec7rk78VJ1QjIbLF4-2">
          <mxGeometry relative="1" as="geometry" />
        </mxCell>
        <mxCell id="ZmPec7rk78VJ1QjIbLF4-1" value="Start" style="ellipse;whiteSpace=wrap;html=1;fillColor=#d5e8d4;strokeColor=#82b366;" vertex="1" parent="1">
          <mxGeometry x="40" y="40" width="120" height="80" as="geometry" />
        </mxCell>
        <mxCell id="ZmPec7rk78VJ1QjIbLF4-106" value="" style="edgeStyle=orthogonalEdgeStyle;rounded=0;orthogonalLoop=1;jettySize=auto;html=1;" edge="1" parent="1" source="ZmPec7rk78VJ1QjIbLF4-2" target="ZmPec7rk78VJ1QjIbLF4-90">
          <mxGeometry relative="1" as="geometry" />
        </mxCell>
        <mxCell id="ZmPec7rk78VJ1QjIbLF4-2" value="Get Deck of Cards" style="rounded=1;whiteSpace=wrap;html=1;" vertex="1" parent="1">
          <mxGeometry x="40" y="210" width="120" height="60" as="geometry" />
        </mxCell>
        <mxCell id="ZmPec7rk78VJ1QjIbLF4-139" value="" style="edgeStyle=orthogonalEdgeStyle;rounded=0;orthogonalLoop=1;jettySize=auto;html=1;" edge="1" parent="1" source="ZmPec7rk78VJ1QjIbLF4-90" target="ZmPec7rk78VJ1QjIbLF4-138">
          <mxGeometry relative="1" as="geometry" />
        </mxCell>
        <mxCell id="ZmPec7rk78VJ1QjIbLF4-90" value="Give Player N Count of Cards" style="shape=process;whiteSpace=wrap;html=1;backgroundOutline=1;rounded=1;" vertex="1" parent="1">
          <mxGeometry x="40" y="350" width="120" height="60" as="geometry" />
        </mxCell>
        <mxCell id="ZmPec7rk78VJ1QjIbLF4-93" value="Give Player N Count of Cards" style="shape=table;startSize=30;container=1;collapsible=0;childLayout=tableLayout;" vertex="1" parent="1">
          <mxGeometry x="500" y="140" width="380" height="640" as="geometry" />
        </mxCell>
        <mxCell id="ZmPec7rk78VJ1QjIbLF4-94" value="" style="shape=tableRow;horizontal=0;startSize=0;swimlaneHead=0;swimlaneBody=0;strokeColor=inherit;top=0;left=0;bottom=0;right=0;collapsible=0;dropTarget=0;fillColor=none;points=[[0,0.5],[1,0.5]];portConstraint=eastwest;" vertex="1" parent="ZmPec7rk78VJ1QjIbLF4-93">
          <mxGeometry y="30" width="380" height="610" as="geometry" />
        </mxCell>
        <mxCell id="ZmPec7rk78VJ1QjIbLF4-95" value="" style="shape=partialRectangle;html=1;whiteSpace=wrap;connectable=0;strokeColor=inherit;overflow=hidden;fillColor=none;top=0;left=0;bottom=0;right=0;pointerEvents=1;" vertex="1" parent="ZmPec7rk78VJ1QjIbLF4-94">
          <mxGeometry width="380" height="610" as="geometry">
            <mxRectangle width="380" height="610" as="alternateBounds" />
          </mxGeometry>
        </mxCell>
        <mxCell id="ZmPec7rk78VJ1QjIbLF4-101" value="" style="edgeStyle=orthogonalEdgeStyle;rounded=0;orthogonalLoop=1;jettySize=auto;html=1;" edge="1" parent="1" source="ZmPec7rk78VJ1QjIbLF4-96" target="ZmPec7rk78VJ1QjIbLF4-100">
          <mxGeometry relative="1" as="geometry" />
        </mxCell>
        <mxCell id="ZmPec7rk78VJ1QjIbLF4-96" value="Start" style="ellipse;whiteSpace=wrap;html=1;fillColor=#d5e8d4;strokeColor=#82b366;" vertex="1" parent="1">
          <mxGeometry x="540" y="190" width="120" height="80" as="geometry" />
        </mxCell>
        <mxCell id="ZmPec7rk78VJ1QjIbLF4-97" value="End" style="ellipse;whiteSpace=wrap;html=1;fillColor=#f8cecc;strokeColor=#b85450;" vertex="1" parent="1">
          <mxGeometry x="40" y="620" width="120" height="80" as="geometry" />
        </mxCell>
        <mxCell id="ZmPec7rk78VJ1QjIbLF4-99" value="End" style="ellipse;whiteSpace=wrap;html=1;fillColor=#f8cecc;strokeColor=#b85450;" vertex="1" parent="1">
          <mxGeometry x="540" y="670" width="120" height="80" as="geometry" />
        </mxCell>
        <mxCell id="ZmPec7rk78VJ1QjIbLF4-129" value="" style="edgeStyle=orthogonalEdgeStyle;rounded=0;orthogonalLoop=1;jettySize=auto;html=1;" edge="1" parent="1" source="ZmPec7rk78VJ1QjIbLF4-100" target="ZmPec7rk78VJ1QjIbLF4-115">
          <mxGeometry relative="1" as="geometry" />
        </mxCell>
        <mxCell id="ZmPec7rk78VJ1QjIbLF4-100" value="Give Player 1 Card" style="rounded=1;whiteSpace=wrap;html=1;" vertex="1" parent="1">
          <mxGeometry x="540" y="340" width="120" height="60" as="geometry" />
        </mxCell>
        <mxCell id="ZmPec7rk78VJ1QjIbLF4-114" value="" style="edgeStyle=orthogonalEdgeStyle;rounded=0;orthogonalLoop=1;jettySize=auto;html=1;" edge="1" parent="1" source="ZmPec7rk78VJ1QjIbLF4-109" target="ZmPec7rk78VJ1QjIbLF4-113">
          <mxGeometry relative="1" as="geometry" />
        </mxCell>
        <mxCell id="ZmPec7rk78VJ1QjIbLF4-109" value="Count of Cards" style="rounded=1;whiteSpace=wrap;html=1;" vertex="1" parent="1">
          <mxGeometry x="750" y="500" width="120" height="60" as="geometry" />
        </mxCell>
        <mxCell id="ZmPec7rk78VJ1QjIbLF4-134" value="" style="edgeStyle=orthogonalEdgeStyle;rounded=0;orthogonalLoop=1;jettySize=auto;html=1;" edge="1" parent="1" source="ZmPec7rk78VJ1QjIbLF4-113" target="ZmPec7rk78VJ1QjIbLF4-100">
          <mxGeometry relative="1" as="geometry" />
        </mxCell>
        <mxCell id="ZmPec7rk78VJ1QjIbLF4-113" value="" style="ellipse;whiteSpace=wrap;html=1;aspect=fixed;fillColor=#f5f5f5;fontColor=#333333;strokeColor=#666666;" vertex="1" parent="1">
          <mxGeometry x="800" y="360" width="20" height="20" as="geometry" />
        </mxCell>
        <mxCell id="ZmPec7rk78VJ1QjIbLF4-117" value="" style="edgeStyle=orthogonalEdgeStyle;rounded=0;orthogonalLoop=1;jettySize=auto;html=1;" edge="1" parent="1" source="ZmPec7rk78VJ1QjIbLF4-115" target="ZmPec7rk78VJ1QjIbLF4-109">
          <mxGeometry relative="1" as="geometry" />
        </mxCell>
        <mxCell id="ZmPec7rk78VJ1QjIbLF4-125" value="No" style="edgeLabel;html=1;align=center;verticalAlign=middle;resizable=0;points=[];" vertex="1" connectable="0" parent="ZmPec7rk78VJ1QjIbLF4-117">
          <mxGeometry x="0.0833" y="1" relative="1" as="geometry">
            <mxPoint as="offset" />
          </mxGeometry>
        </mxCell>
        <mxCell id="ZmPec7rk78VJ1QjIbLF4-136" value="" style="edgeStyle=orthogonalEdgeStyle;rounded=0;orthogonalLoop=1;jettySize=auto;html=1;" edge="1" parent="1" source="ZmPec7rk78VJ1QjIbLF4-115" target="ZmPec7rk78VJ1QjIbLF4-99">
          <mxGeometry relative="1" as="geometry" />
        </mxCell>
        <mxCell id="ZmPec7rk78VJ1QjIbLF4-137" value="Yes" style="edgeLabel;html=1;align=center;verticalAlign=middle;resizable=0;points=[];" vertex="1" connectable="0" parent="ZmPec7rk78VJ1QjIbLF4-136">
          <mxGeometry x="-0.0889" y="4" relative="1" as="geometry">
            <mxPoint as="offset" />
          </mxGeometry>
        </mxCell>
        <mxCell id="ZmPec7rk78VJ1QjIbLF4-115" value="Is Count = N?" style="rhombus;whiteSpace=wrap;html=1;" vertex="1" parent="1">
          <mxGeometry x="550" y="480" width="100" height="100" as="geometry" />
        </mxCell>
        <mxCell id="ZmPec7rk78VJ1QjIbLF4-140" value="" style="edgeStyle=orthogonalEdgeStyle;rounded=0;orthogonalLoop=1;jettySize=auto;html=1;" edge="1" parent="1" source="ZmPec7rk78VJ1QjIbLF4-138" target="ZmPec7rk78VJ1QjIbLF4-97">
          <mxGeometry relative="1" as="geometry" />
        </mxCell>
        <mxCell id="ZmPec7rk78VJ1QjIbLF4-138" value="Player has Correct Number of Cards" style="rounded=1;whiteSpace=wrap;html=1;" vertex="1" parent="1">
          <mxGeometry x="40" y="490" width="120" height="60" as="geometry" />
        </mxCell>
      </root>
    </mxGraphModel>
  </diagram>
</mxfile>
